. 
  
http://www.torrenting.com/        :     Greatest Movie Tracker on The Net!!!
 
http://www.Torrenting.com          :     Once & For all ;)


               www . Torrenting . Com 

(((((((((((((= Enjoy No RAR releases =))))))))))))))))))))


...................................NFO:....................................

.[pre]  
    *********** ****    ****      ***      ******** *********** ****    *** **********
           *+*     +*+*+* *+*+*+   *+* *+*   *+*    *+*    *+*     *+*+*   *+* *+*        
           +*+     +*+ +*+*+ +*+  +*+   +*+  +*+           +*+     *+*+*+  +*+ +*+        
           +$+     +$+  +*+  +$+ +$++*++$++* *$*           +$+     +$+ +*+ +$+ +$++*++$  
           +$+     +$+       +$+ +$+     +$+ +$+   +$+$    +$+     +$+  +$+$+$ +$+        
           $+$     $+$       $+$ $+$     $+$ $+$    $+$    $+$     $+$   $+$+$ $+$        
       $$$$$$$$$$$ $$$       $$$ $$$     $$$  $$$$$$$$ $$$$$$$$$$$ $$$    $$$$ $$$$$$$$$$     
                                                



                           Another Fine Release Brought to you from - IMAGiNE                   
                                                 

********************************************************************************************************************                                
                             Brothers Justice XViD DVDRIP - IMAGiNE
********************************************************************************************************************

Ripper ...........:IMAGiNE                                         IMDB Rating.......:6.2/10                             
Video Codec.......:XVID                                            Release Date......:20/06/11
Audio Codec.......:AC-3                                            Theatre Date......:n/a
Audio Bitrate.....:448                                             Runtime...........:1h 17mn
Subtitles.........:NIL                                             Language..........:ENGLISH
Resolution........:720 x 304                                       IMDb URL..........:http://www.imdb.com/title/tt1540803/


[color=yellow]DETAILS:[/color]

Video
ID                               : 0
Format                           : MPEG-4 Visual
Format profile                   : Advanced Simple@L5
Format settings, BVOP            : Yes
Format settings, QPel            : No
Format settings, GMC             : No warppoints
Format settings, Matrix          : Default (H.263)
Muxing mode                      : Packed bitstream
Codec ID                         : XVID
Codec ID/Hint                    : XviD
Duration                         : 1h 17mn
Bit rate                         : 2 083 Kbps
Width                            : 720 pixels
Height                           : 304 pixels
Display aspect ratio             : 2.35:1
Frame rate                       : 25.000 fps
Color space                      : YUV
Chroma subsampling               : 4:2:0
Bit depth                        : 8 bits
Scan type                        : Progressive
Compression mode                 : Lossy
Bits/(Pixel*Frame)               : 0.381
Stream size                      : 1.12 GiB (82%)
Writing library                  : XviD 58

Audio
ID                               : 1
Format                           : AC-3
Format/Info                      : Audio Coding 3
Mode extension                   : CM (complete main)
Codec ID                         : 2000
Duration                         : 1h 17mn
Bit rate mode                    : Constant
Bit rate                         : 448 Kbps
Channel(s)                       : 6 channels
Channel positions                : Front: L C R, Side: L R, LFE
Sampling rate                    : 48.0 KHz
Bit depth                        : 16 bits
Compression mode                 : Lossy
Stream size                      : 247 MiB (18%)
Alignment                        : Aligned on interleaves
Interleave, duration             : 40 ms (1.00 video frame)
Interleave, preload duration     : 512 ms








[color=yellow]SOURCES:[/color]

VIDEO:  Brothers Justice R4 ................ Thanks Mate
AUDIO:  Brothers Justice R4 ................ Thanks mate

[color=yellow]NOTES:[/color]

IMAGiNE bringing you another release..........Brothers Justice
Here we go with a nice dvdrip.....source was really nice as you would expect so we just ripped it

Audio we just remuxed AC3 back to our encode. :lol:



Enjoy folks ;-)

[color=yellow]SCREENS:[/color]

[IMG]http://www.grinshare.com/img/7TW1J1.png[/IMG]
[IMG]http://www.grinshare.com/img/FSE8X7.png[/IMG]
[IMG]http://www.grinshare.com/img/6U4493.png[/IMG]
[IMG]http://www.grinshare.com/img/PYLSR1.png[/IMG]
[IMG]http://www.grinshare.com/img/9FMLFV.png[/IMG]
[IMG]http://www.grinshare.com/img/2UL9KL.png[/IMG]


[color=yellow]GREETS:[/color]

FLAWL3SS,KINOPARK,Rx,ELEKTRI4KA,ADDiCTED,Autotron,CiNEDUB,
And to all the other p2p grps past and present  

[COLOR=RED]Looking for these,syncers,cammers,audio,silver supplier.....Have anything to offer????......
Contact us imaginegroup@hushmail.com[/COLOR][/pre]